<?xml version="1.0" standalone="no"?>
<!DOCTYPE svg PUBLIC "-//W3C//DTD SVG 20010904//EN"
 "http://www.w3.org/TR/2001/REC-SVG-20010904/DTD/svg10.dtd">
<svg version="1.0" xmlns="http://www.w3.org/2000/svg"
 width="512.000000pt" height="512.000000pt" viewBox="0 0 512.000000 512.000000"
 preserveAspectRatio="xMidYMid meet">
<metadata>
Created by potrace 1.14, written by Peter Selinger 2001-2017
</metadata>
<g transform="translate(0.000000,512.000000) scale(0.100000,-0.100000)"
fill="#000000" stroke="none">
<path d="M460 5105 c-148 -36 -271 -121 -359 -248 -40 -58 -59 -102 -82 -192
-17 -65 -19 -121 -18 -730 0 -558 2 -670 15 -719 27 -103 66 -174 150 -275 29
-35 134 -108 189 -131 111 -47 139 -49 830 -49 699 0 708 0 826 53 166 73 308
250 337 419 4 23 7 346 7 717 0 552 -3 684 -14 725 -64 224 -242 392 -461 434
-87 16 -1350 13 -1420 -4z m1362 -395 c50 -14 97 -55 119 -105 17 -37 19 -80
19 -663 0 -540 -2 -628 -15 -660 -22 -50 -52 -81 -103 -103 -41 -18 -79 -19
-665 -19 -582 0 -625 2 -662 19 -50 22 -91 69 -105 119 -14 53 -14 1233 1
1287 12 44 85 121 122 128 50 10 1253 7 1289 -3z"/>
<path d="M3250 5109 c-19 -5 -45 -11 -58 -13 -12 -3 -57 -21 -99 -42 -105 -50
-215 -159 -266 -264 -66 -134 -67 -141 -66 -860 0 -601 2 -650 19 -718 56
-215 237 -390 450 -436 98 -21 1315 -22 1415 -1 222 46 412 235 459 455 21 99
22 1316 1 1415 -47 222 -235 412 -455 459 -52 11 -196 14 -715 14 -357 0 -666
-4 -685 -9z m1376 -421 c40 -28 60 -52 81 -102 10 -22 12 -168 10 -660 l-2
-631 -29 -42 c-19 -28 -46 -51 -81 -68 l-52 -26 -630 3 -630 3 -36 25 c-48 34
-73 67 -86 115 -7 27 -11 234 -11 646 0 512 2 612 15 640 26 59 76 107 127
119 18 5 315 8 659 7 l626 -2 39 -27z"/>
<path d="M500 2353 c-228 -37 -422 -215 -479 -438 -20 -77 -20 -108 -20 -735
1 -703 2 -721 53 -832 67 -147 191 -259 348 -316 l73 -27 671 -3 c728 -3 748
-2 866 52 53 24 110 63 172 117 45 39 114 150 143 229 l28 75 0 700 0 700 -24
74 c-50 151 -172 290 -310 353 -128 58 -115 57 -835 56 -363 0 -672 -3 -686
-5z m1345 -412 c50 -22 91 -69 105 -119 6 -24 10 -259 10 -649 0 -576 -1 -614
-19 -655 -22 -51 -53 -81 -103 -102 -55 -23 -1260 -24 -1315 -1 -50 21 -82 51
-104 100 -17 38 -19 79 -19 663 0 593 1 625 19 665 23 50 53 80 101 101 30 13
124 15 660 15 585 1 628 -1 665 -18z"/>
<path d="M3213 2340 c-222 -58 -391 -234 -438 -456 -12 -57 -15 -183 -14 -714
0 -600 2 -650 19 -718 28 -105 75 -187 155 -269 75 -76 143 -119 245 -155 65
-23 68 -23 735 -26 637 -2 674 -1 747 17 116 30 190 72 277 159 88 87 142 182
165 292 21 99 22 1316 1 1415 -44 208 -204 382 -415 451 -51 17 -109 19 -730
21 -633 2 -679 1 -747 -17z m1362 -391 c48 -13 81 -38 115 -86 l25 -36 3 -631
c2 -487 -1 -639 -10 -665 -18 -46 -83 -109 -126 -121 -50 -13 -1234 -14 -1283
0 -42 12 -104 68 -123 113 -11 26 -14 150 -15 650 -1 604 -1 620 19 665 24 53
70 98 115 111 46 14 1231 13 1280 0z"/>
</g>
</svg>
